<svg xmlns="http://www.w3.org/2000/svg" viewBox="0 0 24 24" fill="#000"><path d="M3 7h18v6H3z" fill="#DC143C"></path><path d="M19.5 6H16V4.5A2.5 2.5 0 0 0 13.5 2h-3A2.5 2.5 0 0 0 8 4.5V6H4.5A2.5 2.5 0 0 0 2 8.5v9A2.5 2.5 0 0 0 4.5 20h15a2.5 2.5 0 0 0 2.5-2.5v-9A2.5 2.5 0 0 0 19.5 6ZM10 4.5c0-.28.22-.5.5-.5h3c.28 0 .5.22.5.5V6h-4V4.5ZM19.5 18h-15a.5.5 0 0 1-.5-.5v-3.55c.16.03.33.05.5.05H11v.67c0 .55.45 1 1 1s1-.45 1-1V14h6.5c.17 0 .34-.02.5-.05v3.55a.5.5 0 0 1-.5.5Zm.5-6.5a.5.5 0 0 1-.5.5H13v-.67c0-.55-.45-1-1-1s-1 .45-1 1V12H4.5a.5.5 0 0 1-.5-.5v-3c0-.28.22-.5.5-.5h15c.28 0 .5.22.5.5v3Z"></path></svg>